<?xml version="1.0" encoding="UTF-8"?>
<svg id="Capa_2" xmlns="http://www.w3.org/2000/svg" viewBox="0 0 122.81 84.17">
  <defs>
    <style>
      .cls-1 {
        fill: #e30613;
      }
    </style>
  </defs>
  <g id="Capa_1-2" data-name="Capa_1">
    <g>
      <path class="cls-1" d="M28.48,43.8c-.75-16.8,8.59-32.42,23.74-39.71,16.38-7.95,34.82-3.16,44.08,4.58-4.31.86-8.59,1.66-12.84,2.58-1.52.33-3.1.29-4.6-.13-14.18-3.85-29.16,2.46-36.32,15.29l-.62,1.15c20.79-6.89,42.14-11.96,63.8-15.17-26.98,7.15-52.93,17.7-77.24,31.41Z"/>
      <path class="cls-1" d="M49.29,53.73l-2,1.81c-9.02,7.93-17,16.96-23.78,26.87-.31.45-.8.75-1.34.82H.81c-.16,0-.33,0-.81-.1,2-2.06,3.74-4,5.58-5.86,8.18-8.26,16.99-15.87,26.35-22.76.65-.44,1.41-.69,2.19-.71,4.55-.06,9.1,0,13.65,0l1.52-.07Z"/>
      <path class="cls-1" d="M69.5,30.96c5.09-2.27,10.18-4.53,15.27-6.8.24-.11.51-.14.77-.1,2,.46,4.1.94,6.41,1.48l-1.08.63c-4,2.18-8,4.39-12,6.52-.62.31-1.32.42-2,.31-2.45-.48-4.88-1.1-7.32-1.66l-.05-.38Z"/>
      <path class="cls-1" d="M122.81,13.15c-3,.38-5.61,2.85-9,1.55l8.94-1.9.06.35Z"/>
      <path class="cls-1" d="M35.03,82.94c.41.22.48.29.56.29h20c.48-.11.9-.42,1.14-.85,2.93-4.91,5.54-10,8.77-14.73,3.59-5.16,7.6-10.01,12-14.49l-.23.07s11.85-11.73,21.74-19.14c5.41-4.13,11.09-7.89,17-11.25l5.8-3.61c.26-.16.51-.35.76-.53-36.19,11.82-63.94,35.1-87.54,64.24Z"/>
      <path class="cls-1" d="M103.11,42.8c-.04,7.79-3.05,15.27-8.42,20.92-6.84,7.57-15.57,11-25.8,10.39-.65,0-1.27-.21-1.72.62-1.53,2.8-3.15,5.56-4.79,8.41.36.15.48.23.61.26,5.9,1.14,11.97,1.02,17.82-.35,21.42-5.07,35.3-25.82,31.8-47.55l-9.5,7.3Z"/>
    </g>
  </g>
</svg>